Coordinates
version=1
nRows=26
nColumns=24
inDegrees=yes

Units are S.I. units (second, meters, Newtons, ...)
Angles are in degrees.

endheader
time	pelvis_tilt	pelvis_list	pelvis_rotation	pelvis_tx	pelvis_ty	pelvis_tz	hip_flexion_r	hip_adduction_r	hip_rotation_r	knee_angle_r	ankle_angle_r	subtalar_angle_r	mtp_angle_r	hip_flexion_l	hip_adduction_l	hip_rotation_l	knee_angle_l	ankle_angle_l	subtalar_angle_l	mtp_angle_l	lumbar_extension	lumbar_bending	lumbar_rotation
      1.02516667	     -8.11084765	     -4.01514640	     -6.13211467	     -0.12022693	      0.87532082	      0.32996031	     -8.27613043	      8.82723616	      1.59098518	     -9.78886013	     19.24728290	     10.79855193	      9.45235303	     36.28276407	     -6.13804946	    -10.79859832	     -5.17722599	      3.24637447	     -1.12305152	      2.52358153	      1.73550330	      4.56156198	     12.79298363
      1.02933333	     -8.19378657	     -3.91886006	     -6.28867053	     -0.11442750	      0.87429666	      0.33008452	     -8.30798995	      8.67174452	      1.76302452	    -10.35582330	     19.34068445	     10.74370936	      9.58856192	     36.40378478	     -6.09749365	    -10.58397521	     -5.61732796	      3.06765285	     -1.12616062	      2.55558621	      1.85789328	      4.38304315	     12.82576258
      1.03350000	     -8.23361982	     -3.78880558	     -6.44484901	     -0.10857058	      0.87340856	      0.33014136	     -8.33664500	      8.45614766	      1.78862031	    -11.01436495	     19.42679856	     10.94141555	      9.98161336	     36.45653789	     -6.01354677	    -10.37567669	     -6.08757080	      2.83218664	     -1.24701602	      2.67177036	      1.92519607	      4.17879682	     12.97920977
      1.03766667	     -8.21310096	     -3.64803406	     -6.57706740	     -0.10263390	      0.87268810	      0.33021598	     -8.46306486	      8.23781626	      1.92968500	    -11.60601998	     19.40439791	     10.87254721	     10.05189407	     36.44468562	     -5.91115490	    -10.20609736	     -6.62233132	      2.60996753	     -1.27689876	      2.69298409	      1.90668851	      3.94321861	     12.97405267
      1.04183333	     -8.24766479	     -3.48619755	     -6.72293148	     -0.09666729	      0.87194084	      0.33024277	     -8.46466522	      7.98266115	      1.93593145	    -12.32605625	     19.45713723	     11.11654646	     10.59547588	     36.46386731	     -5.78212805	     -9.94724452	     -7.14613608	      2.23027920	     -1.61489586	      2.88119530	      2.01298155	      3.68052829	     13.10567104
      1.04600000	     -8.20079435	     -3.31989582	     -6.84764219	     -0.09060716	      0.87140167	      0.33030037	     -8.58559862	      7.73106326	      2.05190164	    -12.98196385	     19.33551645	     11.01918397	     10.71150753	     36.41463747	     -5.65206825	     -9.84254470	     -7.76536462	      1.92226952	     -1.69259306	      2.91982671	      2.01469028	      3.39380916	     13.08686739
      1.05016667	     -8.18648726	     -3.14067499	     -6.95119920	     -0.08451078	      0.87087118	      0.33027666	     -8.64755424	      7.46144594	      2.10790944	    -13.66198820	     19.09034301	     11.00572695	     15.58823750	     36.38115666	     -5.47920052	     -9.60062555	     -8.36028368	      1.44977138	     -2.10243155	      4.71246065	      2.04795323	      3.09732290	     13.06383970
      1.05433333	     -8.15685904	     -2.94906659	     -7.05043196	     -0.07836518	      0.87042683	      0.33023870	     -8.69440867	      7.17482737	      2.13088256	    -14.41614140	     18.92441441	     11.07539243	     15.67432449	     36.34384481	     -5.29724056	     -9.43157799	     -9.02039230	      1.01037288	     -2.42588707	      4.74780965	      2.08314593	      2.79062610	     13.13190751
      1.05850000	     -8.11933689	     -2.74618681	     -7.13958934	     -0.07214690	      0.87007105	      0.33020533	     -8.74890667	      6.88215105	      2.19699683	    -15.16670487	     18.65382764	     11.03310599	     15.75688214	     36.30013607	     -5.10450256	     -9.32386353	     -9.71017830	      0.55258515	     -2.69696221	      4.76965581	      2.12576737	      2.44960610	     13.10842978
      1.06266667	     -8.08492893	     -2.53988181	     -7.20742098	     -0.06589685	      0.86976894	      0.33010354	     -8.77019646	      6.58244657	      2.20819901	    -15.96908778	     18.34389087	     11.04289179	     15.92715711	     36.25297882	     -4.88299741	     -9.13992374	    -10.39231784	      0.03196691	     -3.17369017	      4.80899059	      2.17616528	      2.11210999	     13.08054058
      1.06683333	     -8.02622005	     -2.34952792	     -7.23314206	     -0.05962023	      0.86954667	      0.32990646	     -8.79870037	      6.29750851	      2.15544635	    -16.80664720	     18.01176862	     11.06199217	     16.29626756	     36.19249721	     -4.64155398	     -8.88288947	    -11.10155117	     -0.50511665	     -3.81132956	      4.88890071	      2.19233522	      1.81234731	     13.03861830
      1.07100000	     -7.96042491	     -2.13852205	     -7.26656843	     -0.05326417	      0.86942116	      0.32973121	     -8.81451940	      5.98659308	      2.11271812	    -17.66061815	     17.45186364	     10.99769292	     20.58283736	     36.12684188	     -4.39927240	     -8.76884631	    -11.84313177	     -0.97198546	     -4.24053595	      5.78687193	      2.21159812	      1.46759776	     12.97613229
      1.07516667	     -7.91600319	     -1.94389698	     -7.28282393	     -0.04691282	      0.86931860	      0.32953093	     -8.78116345	      5.70627685	      2.09637597	    -18.57375349	     16.94929064	     10.91147168	     20.66781509	     36.09626797	     -4.16393931	     -8.61680424	    -12.61117158	     -1.46444718	     -4.71981765	      5.79233935	      2.26587852	      1.14714519	     12.90368065
      1.07933333	     -7.86059496	     -1.73123426	     -7.29795584	     -0.04048484	      0.86931354	      0.32932810	     -8.73703597	      5.40059464	      2.06320044	    -19.51598677	     16.32589790	     10.86144236	     20.76717818	     36.04852290	     -3.91597114	     -8.53345763	    -13.39048627	     -1.87214463	     -5.09942704	      5.79440592	      2.32200104	      0.78022478	     12.82853620
      1.08350000	     -7.81080538	     -1.53420346	     -7.26722248	     -0.03410169	      0.86932457	      0.32898419	     -8.63390511	      5.10970007	      1.94383113	    -20.55724281	     15.75455295	     10.82363341	     21.05887746	     36.01028073	     -3.63436039	     -8.29631177	    -14.15304278	     -2.34486972	     -5.75833679	      5.80176043	      2.35934019	      0.48302883	     12.69705197
      1.08766667	     -7.73180711	     -1.32176037	     -7.23463100	     -0.02763585	      0.86945743	      0.32864654	     -8.54330408	      4.79195701	      1.80594118	    -21.60751780	     14.97805768	     10.77177475	     25.17794015	     35.93914679	     -3.34773476	     -8.16493377	    -14.93960299	     -2.66690233	     -6.21179447	      5.93277226	      2.38180339	      0.12372302	     12.59488496
      1.09183333	     -7.68740732	     -1.13247615	     -7.19313326	     -0.02119851	      0.86959340	      0.32829356	     -8.37798120	      4.51141193	      1.69605421	    -22.72835164	     14.20199446	     10.68051967	     25.25481704	     35.91715872	     -3.08557397	     -8.03233500	    -15.75361677	     -2.97426515	     -6.62353096	      5.92342959	      2.43743011	     -0.17820578	     12.46165089
      1.09600000	     -7.61736243	     -0.93130618	     -7.13000664	     -0.01472867	      0.86981790	      0.32787202	     -8.20427748	      4.20537248	      1.52761650	    -23.90372347	     13.39481075	     10.66918197	     25.49822247	     35.85819604	     -2.78802539	     -7.86705311	    -16.55497709	     -3.20466069	     -7.12247187	      5.90305482	      2.46660005	     -0.51306776	     12.30047343
      1.10016667	     -7.57047862	     -0.73117199	     -7.06312054	     -0.00827685	      0.87006119	      0.32742416	     -7.95116666	      3.89820874	      1.33959432	    -25.16778818	     12.52184837	     10.62384112	     25.79399623	     35.81561737	     -2.49438862	     -7.71496156	    -17.33961568	     -3.40122276	     -7.48564358	      5.87609180	      2.52146812	     -0.82500647	     12.14640511
      1.10433333	     -7.44826273	     -0.51342461	     -6.99660120	     -0.00179199	      0.87048994	      0.32695306	     -7.75085715	      3.54869211	      1.12558586	    -26.44940851	     11.51625212	     10.59443190	     29.31844414	     35.67154064	     -2.17586032	     -7.61649570	    -18.09785308	     -3.52011856	     -7.84868642	      5.55025119	      2.47381313	     -1.18774416	     12.00084689
      1.10850000	     -7.38533188	     -0.33935946	     -6.89193687	      0.00466791	      0.87083822	      0.32644413	     -7.45643360	      3.26316334	      0.89768095	    -27.78880847	     10.49882513	     10.55049703	     29.34701843	     35.61810302	     -1.89100842	     -7.46817315	    -18.92152880	     -3.44339443	     -8.03329223	      5.54562468	      2.51055394	     -1.49066963	     11.90399869
      1.11266667	     -7.33710624	     -0.14465544	     -6.79202441	      0.01107542	      0.87120598	      0.32586175	     -7.07346074	      2.93480395	      0.62066039	    -29.24404685	      9.49324955	     10.54303867	     29.48266731	     35.54961235	     -1.57306930	     -7.29315284	    -19.66590126	     -3.46342484	     -8.37284856	      5.51919147	      2.55798094	     -1.77154041	     11.68493924
      1.11683333	     -7.25260417	      0.05338501	     -6.67985465	      0.01748283	      0.87166831	      0.32526006	     -6.70218837	      2.59062180	      0.32626127	    -30.72287393	      8.41755973	     10.56524735	     29.74453982	     35.43108633	     -1.24241456	     -7.13427095	    -20.40078891	     -3.38415602	     -8.69016162	      5.46913397	      2.55228891	     -2.10479325	     11.47517520
      1.12100000	     -7.16802069	      0.25444064	     -6.56991372	      0.02385780	      0.87217447	      0.32463635	     -6.28176404	      2.22951141	      0.00987379	    -32.26713774	      7.27600440	     10.55722078	     30.01654198	     35.28405580	     -0.90860268	     -6.99145256	    -21.07607508	     -3.25197568	     -8.88082688	      5.41456742	      2.54822894	     -2.39911887	     11.30095379
      1.12516667	     -7.05925625	      0.45095994	     -6.46069211	      0.03018707	      0.87274903	      0.32397842	     -5.85203473	      1.85650201	     -0.31056520	    -33.84625223	      6.09750665	     10.59221661	     30.81667234	     35.08647393	     -0.56110667	     -6.79937966	    -21.70791735	     -3.02568344	     -9.21571691	      5.23410227	      2.49579481	     -2.69845278	     11.03162875
      1.12933333	     -6.93945601	      0.64243216	     -6.33268195	      0.03649631	      0.87336992	      0.32334832	     -5.41101495	      1.48737892	     -0.65231335	    -35.43924415	      4.82806764	     10.54156298	     30.88687282	     34.87655202	     -0.23583786	     -6.71250736	    -22.34128395	     -2.76688300	     -9.21403356	      5.21910639	      2.42211004	     -3.02486544	     10.97848982
